<svg xmlns="http://www.w3.org/2000/svg" viewBox="0 0 64 64">
  <rect width="64" height="64" rx="14" fill="#111827"/>
  <circle cx="34" cy="32" r="22" fill="#0f766e"/>
  <path d="M34 10a22 22 0 0 1 19.1 11.1L34 32Z" fill="#38bdf8"/>
  <path d="M53.1 21.1A22 22 0 0 1 46 50.8L34 32Z" fill="#f59e0b"/>
  <path d="M46 50.8A22 22 0 0 1 12 32h22Z" fill="#22c55e"/>
  <circle cx="34" cy="32" r="7" fill="#111827" opacity=".28"/>
  <path d="M21.1 16.8c1.8-1.8 4.7-1.8 6.5 0l5.4 5.4c1.8 1.8 1.8 4.7 0 6.5l-2.2 2.2c-.7.7-.9 1.8-.4 2.7 1 1.8 2.4 3.7 4.3 5.6s3.8 3.3 5.6 4.3c.9.5 2 .3 2.7-.4l2.2-2.2c1.8-1.8 4.7-1.8 6.5 0l5.4 5.4c1.8 1.8 1.8 4.7 0 6.5l-2.5 2.5c-4.4 4.4-11.7 3.5-21.7-6.5S22 31.5 26.4 27.1l2.5-2.5-7.8-7.8Z" fill="#f8fafc"/>
  <path d="M21.1 16.8c1.8-1.8 4.7-1.8 6.5 0l5.4 5.4c1.8 1.8 1.8 4.7 0 6.5l-2.2 2.2c-.7.7-.9 1.8-.4 2.7 1 1.8 2.4 3.7 4.3 5.6s3.8 3.3 5.6 4.3c.9.5 2 .3 2.7-.4l2.2-2.2c1.8-1.8 4.7-1.8 6.5 0l5.4 5.4" fill="none" stroke="#0f172a" stroke-width="2" stroke-linecap="round" stroke-linejoin="round" opacity=".18"/>
</svg>
